<?xml version="1.0" standalone="no"?>
<!DOCTYPE svg PUBLIC "-//W3C//DTD SVG 20010904//EN"
 "http://www.w3.org/TR/2001/REC-SVG-20010904/DTD/svg10.dtd">
<svg version="1.0" xmlns="http://www.w3.org/2000/svg"
 width="260.000000pt" height="260.000000pt" viewBox="0 0 260.000000 260.000000"
 preserveAspectRatio="xMidYMid meet">
<metadata>
Created by potrace 1.11, written by Peter Selinger 2001-2013
</metadata>
<g transform="translate(0.000000,260.000000) scale(0.100000,-0.100000)"
fill="#000000" stroke="none">
<path d="M0 1300 l0 -1300 1300 0 1300 0 0 1300 0 1300 -1300 0 -1300 0 0
-1300z m1048 788 c9 -9 12 -85 12 -281 l0 -269 225 281 225 281 249 0 c240 0
250 -1 256 -20 5 -15 -55 -95 -274 -365 l-281 -345 301 -426 c165 -235 299
-434 297 -443 -3 -14 -32 -16 -263 -19 l-260 -2 -189 281 -188 281 -49 -48
-49 -48 -2 -230 -3 -231 -224 -3 c-156 -2 -228 1 -237 9 -19 16 -21 1578 -2
1597 17 17 439 17 456 0z"/>
</g>
</svg>
